# xmcd
# 
# Track frame offsets:
#     150
#     17192
#     35492
#     52432
#     69157
#     100317
#     116390
#     132352
#     144380
#     169745
#     186687
#     202500
#     238022
#     256325
#     271735
#     287992
#     302007
#     318002
# 
# Disc length: 4457
# 
# Revision: 2
# Processed by: cddbd v1.5.2PL0 Copyright (c) Steve Scherf et al.
# Submitted via: fre:ac v1.0.31
# 
DISCID=05116712
DTITLE=Disco - Get Down Tonight The Disco Explosion Disc 1 West Coast
DYEAR=2004
DGENRE=Rock/Pop
TTITLE0=Donna Summer - Hot Stuff
TTITLE1=The Gap Band - You Dropped The Bomb On Me
TTITLE2=Village People - Y.M.C.A
TTITLE3=Cheryl Lynn - Got To Be Real
TTITLE4=Sylvester - Do You Wanna Funk
TTITLE5=Barry White - What Am I Gonna Do With You
TTITLE6=Bonnie Pointer - Heaven Must Have Sent You
TTITLE7=Jackson 5 - Dancing Machine
TTITLE8=Commodores - Too Hot Ta Trot
TTITLE9=Village People - In The Navy
TTITLE10=The Weather Girls - It's Raining Men
TTITLE11=Patti Brooks - After Dark
TTITLE12=Diana Ross - Upside Down
TTITLE13=Rick James - Super Freak (Parts I and II)
TTITLE14=A Taste of Honey - Boogie Oogie Oogie
TTITLE15=The Hues Corporation - Rock The Boat
TTITLE16=Love Unlimited Orchestra - Love's Theme
TTITLE17=Thelma Houston - Don't Leave Me This Way
EXTD=
EXTT0=
EXTT1=
EXTT2=
EXTT3=
EXTT4=
EXTT5=
EXTT6=
EXTT7=
EXTT8=
EXTT9=
EXTT10=
EXTT11=
EXTT12=
EXTT13=
EXTT14=
EXTT15=
EXTT16=
EXTT17=
PLAYORDER=
